<svg xmlns="http://www.w3.org/2000/svg" width="125" height="28" fill="none" viewBox="0 0 125 28">
  <circle cx="71" cy="14" r="9" stroke="#fff" stroke-opacity=".15" stroke-width="10"/>
  <circle cx="71" cy="14" r="8" stroke="#fff" stroke-width="2" opacity=".6"/>
  <path fill="#fff" d="M2.91 25H0L8.417 3h2.865L19.7 25h-2.91L9.939 6.48H9.76L2.91 25Zm1.075-8.594h11.73v2.364H3.985v-2.364ZM24.21 25H21.3l8.416-22h2.866l8.417 22h-2.91l-6.85-18.52h-.18L24.21 25Zm1.074-8.594h11.73v2.364h-11.73v-2.364ZM44.57 25V3h7.745c1.79 0 3.26.294 4.41.88 1.148.58 2 1.38 2.551 2.396.552 1.017.829 2.174.829 3.47 0 1.296-.276 2.446-.829 3.448-.552 1.003-1.399 1.79-2.54 2.364-1.142.565-2.6.848-4.377.848h-6.268V14h6.179c1.223 0 2.208-.172 2.955-.516.753-.343 1.298-.83 1.634-1.46.343-.638.515-1.397.515-2.278 0-.88-.172-1.65-.515-2.31-.343-.658-.892-1.167-1.646-1.525-.753-.365-1.75-.548-2.988-.548h-4.88V25h-2.776Zm10.789-9.883L61 25h-3.224l-5.551-9.883h3.134ZM101.217 3v22h-2.692L86.006 7.727h-.224V25H83V3h2.692l12.563 17.316h.225V3h2.737ZM125 3v22h-2.692L109.789 7.727h-.224V25h-2.782V3h2.692l12.564 17.316h.224V3H125Z"/>
</svg>
