<?xml version="1.0" ?><!DOCTYPE svg  PUBLIC '-//W3C//DTD SVG 1.1//EN'  'http://www.w3.org/Graphics/SVG/1.1/DTD/svg11.dtd'><svg enable-background="new 0 0 512 512" height="512px" id="Layer_1" version="1.1" viewBox="0 0 512 512" width="512px" xml:space="preserve" xmlns="http://www.w3.org/2000/svg" xmlns:xlink="http://www.w3.org/1999/xlink"><g><path clip-rule="evenodd" d="M389.208,247.082c1.22-74.396-57.458-135.792-130.944-137.001   c-73.487-1.209-133.974,58.068-135.482,132.464c-0.3,34.175,11.492,65.322,31.757,89.516l-8.774,33.266l-4.537,17.237l16.938-6.955   l32.656-13.3c18.757,10.582,40.221,16.928,62.905,17.237C327.513,380.755,388.01,321.478,389.208,247.082L389.208,247.082z    M143.346,127.623c29.938-29.034,70.459-46.876,114.917-46.271l0,0h0.599c44.758,0.91,84.979,19.961,113.729,49.899   c28.419,29.943,45.967,70.769,45.347,115.832l0,0v0.3c-0.909,45.057-19.655,85.588-49.294,114.617   c-47.476,46.277-118.245,59.277-179.031,31.758l-0.899,0.3l-89.826,36.593l24.193-91.634l0.31-0.909   c-19.356-27.819-29.639-60.786-29.04-95.561l0,0v-0.305C95.261,197.177,113.708,156.657,143.346,127.623L143.346,127.623z    M486.599,0H25.701C11.492,0,0,11.492,0,25.707v460.892C0,500.509,11.492,512,25.701,512h460.897   c13.91,0,25.401-11.491,25.401-25.401V25.707C512,11.492,500.509,0,486.599,0L486.599,0z M221.07,237.099   c4.227,9.678,13.3,20.266,21.774,28.13c8.463,7.864,20.255,16.028,29.938,19.356c0.909,0.299,4.236,1.808,7.254,1.209   c2.419-0.311,3.928-2.419,6.346-5.146c3.947-4.837,5.146-6.655,8.784-11.492c2.707-3.327,5.746-4.536,8.453-3.027l31.458,14.52   c2.418,1.209,3.327,4.536,3.927,8.773c0.31,3.627,0.909,7.555,0.31,10.282c-1.509,6.655-16.928,20.565-29.039,23.283   c-26.001,5.746-62.894-14.819-86.487-36.594c-23.893-21.773-47.786-56.854-44.458-83.165c1.519-12.096,14.22-28.729,20.565-30.848   c2.728-0.904,6.955-0.604,10.592-0.604c4.227,0,7.854,0.305,9.063,3.023l13.92,36.294c1.209,2.723-0.909,5.746-3.937,9.073   c-3.927,4.836-4.537,5.141-8.164,9.978C219.251,232.562,220.46,235.89,221.07,237.099L221.07,237.099z" fill="#010101" fill-rule="evenodd"/></g></svg>